<svg xmlns="http://www.w3.org/2000/svg" width="960" height="488" viewBox="0 0 960 488" role="img"><title>Time, tokens and memory</title><rect x="0.5" y="0.5" width="471.0" height="235.0" rx="8" fill="#161b22" stroke="#2b313a" stroke-width="1"/><text x="18.0" y="28.0" font-family="-apple-system, BlinkMacSystemFont, 'Segoe UI', Helvetica, Arial, sans-serif" font-size="14" font-weight="600" fill="#eef1f5" text-anchor="start">Wall time per task</text><rect x="18.0" y="41.0" width="10.0" height="10.0" rx="2" fill="#3987e5"/><text x="34.0" y="50.0" font-family="-apple-system, BlinkMacSystemFont, 'Segoe UI', Helvetica, Arial, sans-serif" font-size="11.5" font-weight="400" fill="#b4bbc7" text-anchor="start">Python</text><rect x="81.6" y="41.0" width="10.0" height="10.0" rx="2" fill="#d95926"/><text x="97.6" y="50.0" font-family="-apple-system, BlinkMacSystemFont, 'Segoe UI', Helvetica, Arial, sans-serif" font-size="11.5" font-weight="400" fill="#b4bbc7" text-anchor="start">Go</text><rect x="118.8" y="41.0" width="10.0" height="10.0" rx="2" fill="#199e70"/><text x="134.8" y="50.0" font-family="-apple-system, BlinkMacSystemFont, 'Segoe UI', Helvetica, Arial, sans-serif" font-size="11.5" font-weight="400" fill="#b4bbc7" text-anchor="start">Java</text><line x1="142.0" y1="64.0" x2="142.0" y2="184.0" stroke="#2b313a" stroke-width="1"/><text x="142.0" y="199.0" font-family="ui-monospace, SFMono-Regular, 'SF Mono', Menlo, Consolas, monospace" font-size="10.5" font-weight="400" fill="#848c99" text-anchor="middle">0</text><line x1="210.0" y1="64.0" x2="210.0" y2="184.0" stroke="#2b313a" stroke-width="1"/><text x="210.0" y="199.0" font-family="ui-monospace, SFMono-Regular, 'SF Mono', Menlo, Consolas, monospace" font-size="10.5" font-weight="400" fill="#848c99" text-anchor="middle">400</text><line x1="278.0" y1="64.0" x2="278.0" y2="184.0" stroke="#2b313a" stroke-width="1"/><text x="278.0" y="199.0" font-family="ui-monospace, SFMono-Regular, 'SF Mono', Menlo, Consolas, monospace" font-size="10.5" font-weight="400" fill="#848c99" text-anchor="middle">800</text><line x1="346.0" y1="64.0" x2="346.0" y2="184.0" stroke="#2b313a" stroke-width="1"/><text x="346.0" y="199.0" font-family="ui-monospace, SFMono-Regular, 'SF Mono', Menlo, Consolas, monospace" font-size="10.5" font-weight="400" fill="#848c99" text-anchor="middle">1,200</text><line x1="414.0" y1="64.0" x2="414.0" y2="184.0" stroke="#2b313a" stroke-width="1"/><text x="414.0" y="199.0" font-family="ui-monospace, SFMono-Regular, 'SF Mono', Menlo, Consolas, monospace" font-size="10.5" font-weight="400" fill="#848c99" text-anchor="middle">1,600</text><text x="132.0" y="83.0" font-family="ui-monospace, SFMono-Regular, 'SF Mono', Menlo, Consolas, monospace" font-size="11.5" font-weight="400" fill="#eef1f5" text-anchor="end">qwen2.5-coder:7b</text><text x="132.0" y="113.0" font-family="ui-monospace, SFMono-Regular, 'SF Mono', Menlo, Consolas, monospace" font-size="11.5" font-weight="400" fill="#eef1f5" text-anchor="end">qwen3.5:9b</text><text x="132.0" y="143.0" font-family="ui-monospace, SFMono-Regular, 'SF Mono', Menlo, Consolas, monospace" font-size="11.5" font-weight="400" fill="#eef1f5" text-anchor="end">qwen2.5-coder:14b</text><text x="132.0" y="173.0" font-family="ui-monospace, SFMono-Regular, 'SF Mono', Menlo, Consolas, monospace" font-size="11.5" font-weight="400" fill="#eef1f5" text-anchor="end">ornith:9b</text><rect x="142.0" y="72.0" width="15.8" height="14.0" rx="0" fill="#3987e5"/><rect x="159.8" y="72.0" width="18.9" height="14.0" rx="0" fill="#d95926"/><path d="M180.7,72.0 h19.8 a4,4 0 0 1 4,4 v6.0 a4,4 0 0 1 -4,4 h-19.8 z" fill="#199e70"/><text x="210.5" y="83.0" font-family="ui-monospace, SFMono-Regular, 'SF Mono', Menlo, Consolas, monospace" font-size="11" font-weight="400" fill="#b4bbc7" text-anchor="start">367 s</text><rect x="142.0" y="102.0" width="31.2" height="14.0" rx="0" fill="#3987e5"/><rect x="175.2" y="102.0" width="64.9" height="14.0" rx="0" fill="#d95926"/><path d="M242.1,102.0 h39.7 a4,4 0 0 1 4,4 v6.0 a4,4 0 0 1 -4,4 h-39.7 z" fill="#199e70"/><text x="291.8" y="113.0" font-family="ui-monospace, SFMono-Regular, 'SF Mono', Menlo, Consolas, monospace" font-size="11" font-weight="400" fill="#b4bbc7" text-anchor="start">846 s</text><rect x="142.0" y="132.0" width="151.2" height="14.0" rx="0" fill="#3987e5"/><rect x="295.2" y="132.0" width="50.0" height="14.0" rx="0" fill="#d95926"/><path d="M347.2,132.0 h41.6 a4,4 0 0 1 4,4 v6.0 a4,4 0 0 1 -4,4 h-41.6 z" fill="#199e70"/><text x="398.7" y="143.0" font-family="ui-monospace, SFMono-Regular, 'SF Mono', Menlo, Consolas, monospace" font-size="11" font-weight="400" fill="#b4bbc7" text-anchor="start">1,475 s</text><rect x="142.0" y="162.0" width="58.2" height="14.0" rx="0" fill="#3987e5"/><rect x="202.2" y="162.0" width="144.3" height="14.0" rx="0" fill="#d95926"/><path d="M348.5,162.0 h51.1 a4,4 0 0 1 4,4 v6.0 a4,4 0 0 1 -4,4 h-51.1 z" fill="#199e70"/><text x="409.5" y="173.0" font-family="ui-monospace, SFMono-Regular, 'SF Mono', Menlo, Consolas, monospace" font-size="11" font-weight="400" fill="#b4bbc7" text-anchor="start">1,539 s</text><text x="18.0" y="222.0" font-family="-apple-system, BlinkMacSystemFont, 'Segoe UI', Helvetica, Arial, sans-serif" font-size="11" font-weight="400" fill="#848c99" text-anchor="start">Bar end = sum of task times. The 14B run swapped heavily; not a clean speed figure.</text><rect x="488.5" y="0.5" width="471.0" height="235.0" rx="8" fill="#161b22" stroke="#2b313a" stroke-width="1"/><text x="506.0" y="28.0" font-family="-apple-system, BlinkMacSystemFont, 'Segoe UI', Helvetica, Arial, sans-serif" font-size="14" font-weight="600" fill="#eef1f5" text-anchor="start">Completion tokens (both attempts)</text><rect x="506.0" y="41.0" width="10.0" height="10.0" rx="2" fill="#3987e5"/><text x="522.0" y="50.0" font-family="-apple-system, BlinkMacSystemFont, 'Segoe UI', Helvetica, Arial, sans-serif" font-size="11.5" font-weight="400" fill="#b4bbc7" text-anchor="start">Python</text><rect x="569.6" y="41.0" width="10.0" height="10.0" rx="2" fill="#d95926"/><text x="585.6" y="50.0" font-family="-apple-system, BlinkMacSystemFont, 'Segoe UI', Helvetica, Arial, sans-serif" font-size="11.5" font-weight="400" fill="#b4bbc7" text-anchor="start">Go</text><rect x="606.8" y="41.0" width="10.0" height="10.0" rx="2" fill="#199e70"/><text x="622.8" y="50.0" font-family="-apple-system, BlinkMacSystemFont, 'Segoe UI', Helvetica, Arial, sans-serif" font-size="11.5" font-weight="400" fill="#b4bbc7" text-anchor="start">Java</text><line x1="630.0" y1="64.0" x2="630.0" y2="184.0" stroke="#2b313a" stroke-width="1"/><text x="630.0" y="199.0" font-family="ui-monospace, SFMono-Regular, 'SF Mono', Menlo, Consolas, monospace" font-size="10.5" font-weight="400" fill="#848c99" text-anchor="middle">0</text><line x1="684.4" y1="64.0" x2="684.4" y2="184.0" stroke="#2b313a" stroke-width="1"/><text x="684.4" y="199.0" font-family="ui-monospace, SFMono-Regular, 'SF Mono', Menlo, Consolas, monospace" font-size="10.5" font-weight="400" fill="#848c99" text-anchor="middle">5k</text><line x1="738.8" y1="64.0" x2="738.8" y2="184.0" stroke="#2b313a" stroke-width="1"/><text x="738.8" y="199.0" font-family="ui-monospace, SFMono-Regular, 'SF Mono', Menlo, Consolas, monospace" font-size="10.5" font-weight="400" fill="#848c99" text-anchor="middle">10k</text><line x1="793.2" y1="64.0" x2="793.2" y2="184.0" stroke="#2b313a" stroke-width="1"/><text x="793.2" y="199.0" font-family="ui-monospace, SFMono-Regular, 'SF Mono', Menlo, Consolas, monospace" font-size="10.5" font-weight="400" fill="#848c99" text-anchor="middle">15k</text><line x1="847.6" y1="64.0" x2="847.6" y2="184.0" stroke="#2b313a" stroke-width="1"/><text x="847.6" y="199.0" font-family="ui-monospace, SFMono-Regular, 'SF Mono', Menlo, Consolas, monospace" font-size="10.5" font-weight="400" fill="#848c99" text-anchor="middle">20k</text><line x1="902.0" y1="64.0" x2="902.0" y2="184.0" stroke="#2b313a" stroke-width="1"/><text x="902.0" y="199.0" font-family="ui-monospace, SFMono-Regular, 'SF Mono', Menlo, Consolas, monospace" font-size="10.5" font-weight="400" fill="#848c99" text-anchor="middle">25k</text><text x="620.0" y="83.0" font-family="ui-monospace, SFMono-Regular, 'SF Mono', Menlo, Consolas, monospace" font-size="11.5" font-weight="400" fill="#eef1f5" text-anchor="end">qwen2.5-coder:7b</text><text x="620.0" y="113.0" font-family="ui-monospace, SFMono-Regular, 'SF Mono', Menlo, Consolas, monospace" font-size="11.5" font-weight="400" fill="#eef1f5" text-anchor="end">qwen3.5:9b</text><text x="620.0" y="143.0" font-family="ui-monospace, SFMono-Regular, 'SF Mono', Menlo, Consolas, monospace" font-size="11.5" font-weight="400" fill="#eef1f5" text-anchor="end">qwen2.5-coder:14b</text><text x="620.0" y="173.0" font-family="ui-monospace, SFMono-Regular, 'SF Mono', Menlo, Consolas, monospace" font-size="11.5" font-weight="400" fill="#eef1f5" text-anchor="end">ornith:9b</text><rect x="630.0" y="72.0" width="13.8" height="14.0" rx="0" fill="#3987e5"/><rect x="645.8" y="72.0" width="16.3" height="14.0" rx="0" fill="#d95926"/><path d="M664.1,72.0 h14.6 a4,4 0 0 1 4,4 v6.0 a4,4 0 0 1 -4,4 h-14.6 z" fill="#199e70"/><text x="688.7" y="83.0" font-family="ui-monospace, SFMono-Regular, 'SF Mono', Menlo, Consolas, monospace" font-size="11" font-weight="400" fill="#b4bbc7" text-anchor="start">4.8k</text><rect x="630.0" y="102.0" width="33.7" height="14.0" rx="0" fill="#3987e5"/><rect x="665.7" y="102.0" width="37.3" height="14.0" rx="0" fill="#d95926"/><path d="M705.0,102.0 h35.8 a4,4 0 0 1 4,4 v6.0 a4,4 0 0 1 -4,4 h-35.8 z" fill="#199e70"/><text x="750.8" y="113.0" font-family="ui-monospace, SFMono-Regular, 'SF Mono', Menlo, Consolas, monospace" font-size="11" font-weight="400" fill="#b4bbc7" text-anchor="start">10.6k</text><rect x="630.0" y="132.0" width="52.2" height="14.0" rx="0" fill="#3987e5"/><rect x="684.2" y="132.0" width="14.8" height="14.0" rx="0" fill="#d95926"/><path d="M701.0,132.0 h14.6 a4,4 0 0 1 4,4 v6.0 a4,4 0 0 1 -4,4 h-14.6 z" fill="#199e70"/><text x="725.6" y="143.0" font-family="ui-monospace, SFMono-Regular, 'SF Mono', Menlo, Consolas, monospace" font-size="11" font-weight="400" fill="#b4bbc7" text-anchor="start">8.2k</text><rect x="630.0" y="162.0" width="71.2" height="14.0" rx="0" fill="#3987e5"/><rect x="703.2" y="162.0" width="145.3" height="14.0" rx="0" fill="#d95926"/><path d="M850.4,162.0 h45.7 a4,4 0 0 1 4,4 v6.0 a4,4 0 0 1 -4,4 h-45.7 z" fill="#199e70"/><text x="906.1" y="173.0" font-family="ui-monospace, SFMono-Regular, 'SF Mono', Menlo, Consolas, monospace" font-size="11" font-weight="400" fill="#b4bbc7" text-anchor="start">24.8k</text><text x="506.0" y="222.0" font-family="-apple-system, BlinkMacSystemFont, 'Segoe UI', Helvetica, Arial, sans-serif" font-size="11" font-weight="400" fill="#848c99" text-anchor="start">ornith:9b spent most tokens thinking; its Python and Go answers were empty.</text><rect x="0.5" y="252.5" width="471.0" height="235.0" rx="8" fill="#161b22" stroke="#2b313a" stroke-width="1"/><text x="18.0" y="280.0" font-family="-apple-system, BlinkMacSystemFont, 'Segoe UI', Helvetica, Arial, sans-serif" font-size="14" font-weight="600" fill="#eef1f5" text-anchor="start">Host swap: before run → peak</text><circle cx="23.0" cy="298.0" r="4" fill="#161b22" stroke="#6b7380" stroke-width="2"/><text x="34.0" y="302.0" font-family="-apple-system, BlinkMacSystemFont, 'Segoe UI', Helvetica, Arial, sans-serif" font-size="11.5" font-weight="400" fill="#b4bbc7" text-anchor="start">Before</text><circle cx="86.6" cy="298.0" r="5" fill="#eef1f5"/><text x="97.6" y="302.0" font-family="-apple-system, BlinkMacSystemFont, 'Segoe UI', Helvetica, Arial, sans-serif" font-size="11.5" font-weight="400" fill="#b4bbc7" text-anchor="start">Peak during run</text><line x1="142.0" y1="316.0" x2="142.0" y2="436.0" stroke="#2b313a" stroke-width="1"/><text x="142.0" y="451.0" font-family="ui-monospace, SFMono-Regular, 'SF Mono', Menlo, Consolas, monospace" font-size="10.5" font-weight="400" fill="#848c99" text-anchor="middle">0</text><line x1="210.0" y1="316.0" x2="210.0" y2="436.0" stroke="#2b313a" stroke-width="1"/><text x="210.0" y="451.0" font-family="ui-monospace, SFMono-Regular, 'SF Mono', Menlo, Consolas, monospace" font-size="10.5" font-weight="400" fill="#848c99" text-anchor="middle">2,500</text><line x1="278.0" y1="316.0" x2="278.0" y2="436.0" stroke="#2b313a" stroke-width="1"/><text x="278.0" y="451.0" font-family="ui-monospace, SFMono-Regular, 'SF Mono', Menlo, Consolas, monospace" font-size="10.5" font-weight="400" fill="#848c99" text-anchor="middle">5,000</text><line x1="346.0" y1="316.0" x2="346.0" y2="436.0" stroke="#2b313a" stroke-width="1"/><text x="346.0" y="451.0" font-family="ui-monospace, SFMono-Regular, 'SF Mono', Menlo, Consolas, monospace" font-size="10.5" font-weight="400" fill="#848c99" text-anchor="middle">7,500</text><line x1="414.0" y1="316.0" x2="414.0" y2="436.0" stroke="#2b313a" stroke-width="1"/><text x="414.0" y="451.0" font-family="ui-monospace, SFMono-Regular, 'SF Mono', Menlo, Consolas, monospace" font-size="10.5" font-weight="400" fill="#848c99" text-anchor="middle">10,000</text><text x="132.0" y="335.0" font-family="ui-monospace, SFMono-Regular, 'SF Mono', Menlo, Consolas, monospace" font-size="11.5" font-weight="400" fill="#eef1f5" text-anchor="end">qwen2.5-coder:7b</text><text x="132.0" y="365.0" font-family="ui-monospace, SFMono-Regular, 'SF Mono', Menlo, Consolas, monospace" font-size="11.5" font-weight="400" fill="#eef1f5" text-anchor="end">qwen3.5:9b</text><text x="132.0" y="395.0" font-family="ui-monospace, SFMono-Regular, 'SF Mono', Menlo, Consolas, monospace" font-size="11.5" font-weight="400" fill="#eef1f5" text-anchor="end">qwen2.5-coder:14b</text><text x="132.0" y="425.0" font-family="ui-monospace, SFMono-Regular, 'SF Mono', Menlo, Consolas, monospace" font-size="11.5" font-weight="400" fill="#eef1f5" text-anchor="end">ornith:9b</text><line x1="142.0" y1="331.0" x2="145.2" y2="331.0" stroke="#b4bbc7" stroke-width="2"/><circle cx="145.2" cy="331.0" r="5" fill="#eef1f5" stroke="#161b22" stroke-width="2"/><circle cx="142.0" cy="331.0" r="4.5" fill="#161b22" stroke="#6b7380" stroke-width="2"/><text x="156.2" y="335.0" font-family="ui-monospace, SFMono-Regular, 'SF Mono', Menlo, Consolas, monospace" font-size="11" font-weight="400" fill="#b4bbc7" text-anchor="start">+117 MiB</text><line x1="189.2" y1="361.0" x2="214.3" y2="361.0" stroke="#b4bbc7" stroke-width="2"/><circle cx="214.3" cy="361.0" r="5" fill="#eef1f5" stroke="#161b22" stroke-width="2"/><circle cx="189.2" cy="361.0" r="4.5" fill="#161b22" stroke="#6b7380" stroke-width="2"/><text x="225.3" y="365.0" font-family="ui-monospace, SFMono-Regular, 'SF Mono', Menlo, Consolas, monospace" font-size="11" font-weight="400" fill="#b4bbc7" text-anchor="start">+923 MiB</text><line x1="209.9" y1="391.0" x2="401.1" y2="391.0" stroke="#b4bbc7" stroke-width="2"/><circle cx="401.1" cy="391.0" r="5" fill="#eef1f5" stroke="#161b22" stroke-width="2"/><circle cx="209.9" cy="391.0" r="4.5" fill="#161b22" stroke="#6b7380" stroke-width="2"/><text x="198.9" y="395.0" font-family="ui-monospace, SFMono-Regular, 'SF Mono', Menlo, Consolas, monospace" font-size="11" font-weight="400" fill="#b4bbc7" text-anchor="end">+7,031 MiB</text><circle cx="326.4" cy="421.0" r="5" fill="#eef1f5" stroke="#161b22" stroke-width="2"/><circle cx="326.4" cy="421.0" r="4.5" fill="#161b22" stroke="#6b7380" stroke-width="2"/><text x="337.4" y="425.0" font-family="ui-monospace, SFMono-Regular, 'SF Mono', Menlo, Consolas, monospace" font-size="11" font-weight="400" fill="#b4bbc7" text-anchor="start">±0</text><text x="18.0" y="474.0" font-family="-apple-system, BlinkMacSystemFont, 'Segoe UI', Helvetica, Arial, sans-serif" font-size="11" font-weight="400" fill="#848c99" text-anchor="start">MiB, whole host. Background apps stayed open; 14B swap was still present for ornith.</text><rect x="488.5" y="252.5" width="471.0" height="235.0" rx="8" fill="#161b22" stroke="#2b313a" stroke-width="1"/><text x="506.0" y="280.0" font-family="-apple-system, BlinkMacSystemFont, 'Segoe UI', Helvetica, Arial, sans-serif" font-size="14" font-weight="600" fill="#eef1f5" text-anchor="start">Model resident size (GPU)</text><rect x="506.0" y="293.0" width="10.0" height="10.0" rx="2" fill="#8fb6ec"/><text x="522.0" y="302.0" font-family="-apple-system, BlinkMacSystemFont, 'Segoe UI', Helvetica, Arial, sans-serif" font-size="11.5" font-weight="400" fill="#b4bbc7" text-anchor="start">Ollama /api/ps, context 8192</text><line x1="714.8" y1="298.0" x2="726.8" y2="298.0" stroke="#848c99" stroke-width="1.5" stroke-dasharray="4 3"/><text x="730.8" y="302.0" font-family="-apple-system, BlinkMacSystemFont, 'Segoe UI', Helvetica, Arial, sans-serif" font-size="11.5" font-weight="400" fill="#b4bbc7" text-anchor="start">Docker VM 8.3 GB</text><line x1="630.0" y1="316.0" x2="630.0" y2="436.0" stroke="#2b313a" stroke-width="1"/><text x="630.0" y="451.0" font-family="ui-monospace, SFMono-Regular, 'SF Mono', Menlo, Consolas, monospace" font-size="10.5" font-weight="400" fill="#848c99" text-anchor="middle">0 GB</text><line x1="698.0" y1="316.0" x2="698.0" y2="436.0" stroke="#2b313a" stroke-width="1"/><text x="698.0" y="451.0" font-family="ui-monospace, SFMono-Regular, 'SF Mono', Menlo, Consolas, monospace" font-size="10.5" font-weight="400" fill="#848c99" text-anchor="middle">3 GB</text><line x1="766.0" y1="316.0" x2="766.0" y2="436.0" stroke="#2b313a" stroke-width="1"/><text x="766.0" y="451.0" font-family="ui-monospace, SFMono-Regular, 'SF Mono', Menlo, Consolas, monospace" font-size="10.5" font-weight="400" fill="#848c99" text-anchor="middle">6 GB</text><line x1="834.0" y1="316.0" x2="834.0" y2="436.0" stroke="#2b313a" stroke-width="1"/><text x="834.0" y="451.0" font-family="ui-monospace, SFMono-Regular, 'SF Mono', Menlo, Consolas, monospace" font-size="10.5" font-weight="400" fill="#848c99" text-anchor="middle">9 GB</text><line x1="902.0" y1="316.0" x2="902.0" y2="436.0" stroke="#2b313a" stroke-width="1"/><text x="902.0" y="451.0" font-family="ui-monospace, SFMono-Regular, 'SF Mono', Menlo, Consolas, monospace" font-size="10.5" font-weight="400" fill="#848c99" text-anchor="middle">12 GB</text><line x1="818.6" y1="312.0" x2="818.6" y2="436.0" stroke="#848c99" stroke-width="1.5" stroke-dasharray="4 3"/><text x="620.0" y="335.0" font-family="ui-monospace, SFMono-Regular, 'SF Mono', Menlo, Consolas, monospace" font-size="11.5" font-weight="400" fill="#eef1f5" text-anchor="end">qwen2.5-coder:7b</text><text x="620.0" y="365.0" font-family="ui-monospace, SFMono-Regular, 'SF Mono', Menlo, Consolas, monospace" font-size="11.5" font-weight="400" fill="#eef1f5" text-anchor="end">qwen3.5:9b</text><text x="620.0" y="395.0" font-family="ui-monospace, SFMono-Regular, 'SF Mono', Menlo, Consolas, monospace" font-size="11.5" font-weight="400" fill="#eef1f5" text-anchor="end">qwen2.5-coder:14b</text><text x="620.0" y="425.0" font-family="ui-monospace, SFMono-Regular, 'SF Mono', Menlo, Consolas, monospace" font-size="11.5" font-weight="400" fill="#eef1f5" text-anchor="end">ornith:9b</text><path d="M630.0,324.0 h108.9 a4,4 0 0 1 4,4 v6.0 a4,4 0 0 1 -4,4 h-108.9 z" fill="#8fb6ec"/><text x="748.9" y="335.0" font-family="ui-monospace, SFMono-Regular, 'SF Mono', Menlo, Consolas, monospace" font-size="11" font-weight="400" fill="#b4bbc7" text-anchor="start">4.98</text><path d="M630.0,354.0 h126.9 a4,4 0 0 1 4,4 v6.0 a4,4 0 0 1 -4,4 h-126.9 z" fill="#8fb6ec"/><text x="766.9" y="365.0" font-family="ui-monospace, SFMono-Regular, 'SF Mono', Menlo, Consolas, monospace" font-size="11" font-weight="400" fill="#b4bbc7" text-anchor="start">5.77</text><path d="M630.0,384.0 h228.8 a4,4 0 0 1 4,4 v6.0 a4,4 0 0 1 -4,4 h-228.8 z" fill="#8fb6ec"/><text x="868.8" y="395.0" font-family="ui-monospace, SFMono-Regular, 'SF Mono', Menlo, Consolas, monospace" font-size="11" font-weight="400" fill="#b4bbc7" text-anchor="start">10.27</text><path d="M630.0,414.0 h135.6 a4,4 0 0 1 4,4 v6.0 a4,4 0 0 1 -4,4 h-135.6 z" fill="#8fb6ec"/><text x="775.6" y="425.0" font-family="ui-monospace, SFMono-Regular, 'SF Mono', Menlo, Consolas, monospace" font-size="11" font-weight="400" fill="#b4bbc7" text-anchor="start">6.16</text><text x="506.0" y="474.0" font-family="-apple-system, BlinkMacSystemFont, 'Segoe UI', Helvetica, Arial, sans-serif" font-size="11" font-weight="400" fill="#848c99" text-anchor="start">All models ran 100% on GPU. The Docker VM shares the same 24 GiB.</text></svg>
